<svg xmlns="http://www.w3.org/2000/svg" xmlns:xlink="http://www.w3.org/1999/xlink" width="16" height="16" viewBox="0 0 16 16">
  <defs>
    <clipPath id="clip-path">
      <rect id="Rectangle_51609" data-name="Rectangle 51609" width="16" height="16" fill="#fff"/>
    </clipPath>
  </defs>
  <g id="Domain_icon" data-name="Domain icon" clip-path="url(#clip-path)">
    <path id="Path_171161" data-name="Path 171161" d="M130.26,55.117a5.14,5.14,0,1,0,5.14,5.14A5.146,5.146,0,0,0,130.26,55.117Zm0,9.772c-.531,0-1.1-.7-1.464-1.849.466-.043.958-.065,1.464-.065s1,.023,1.464.065C131.358,64.193,130.791,64.889,130.26,64.889Zm0-2.423c-.554,0-1.093.027-1.6.076a9.68,9.68,0,0,1-.251-2.03h3.707a9.674,9.674,0,0,1-.251,2.03c-.509-.05-1.049-.076-1.6-.076Zm0-6.84c.531,0,1.1.7,1.464,1.849-.466.043-.958.065-1.464.065s-1-.023-1.464-.065C129.162,56.322,129.73,55.626,130.26,55.626Zm0,2.423c.554,0,1.093-.027,1.6-.076a9.675,9.675,0,0,1,.251,2.03h-3.707a9.682,9.682,0,0,1,.251-2.03c.509.05,1.049.076,1.6.076ZM127.9,60h-2.262a4.6,4.6,0,0,1,.866-2.447,9.373,9.373,0,0,0,1.645.358A10.342,10.342,0,0,0,127.9,60Zm0,.509a10.339,10.339,0,0,0,.249,2.09,9.375,9.375,0,0,0-1.645.358,4.6,4.6,0,0,1-.866-2.447Zm4.725,0h2.262a4.6,4.6,0,0,1-.866,2.447,9.383,9.383,0,0,0-1.645-.358,10.345,10.345,0,0,0,.249-2.089Zm0-.509a10.339,10.339,0,0,0-.249-2.09,9.373,9.373,0,0,0,1.645-.358A4.6,4.6,0,0,1,134.885,60Zm1.05-2.873a9.468,9.468,0,0,1-1.431.288,4.775,4.775,0,0,0-.806-1.64A4.635,4.635,0,0,1,133.673,57.13Zm-4.589-1.353a4.779,4.779,0,0,0-.806,1.64,9.468,9.468,0,0,1-1.431-.288A4.637,4.637,0,0,1,129.084,55.778Zm-2.237,7.607a9.467,9.467,0,0,1,1.431-.288,4.775,4.775,0,0,0,.806,1.64A4.636,4.636,0,0,1,126.848,63.385Zm4.589,1.353a4.776,4.776,0,0,0,.806-1.64,9.465,9.465,0,0,1,1.431.288A4.636,4.636,0,0,1,131.436,64.737Z" transform="translate(-122.261 -52.257)" fill="#fff" stroke="#fff" stroke-width="0.3"/>
  </g>
</svg>
